:SAMPLES-PER-SECOND 30
:FULLY-SPECIFIED
:DEGREES
99
root  -37.2486 38.3409 -10.7715 8.44385 -63.0158 -1.20389
RightUpLeg  14.3601 -32.7348 -9.90182
RightLeg  34.3535 2.76976 1.76598
RightFoot  -2.73318 -1.37476 17.7822
RightToes  5.82063e-011 0 -3.6325e-017
Spine  16.7496 6.87219 13.9567
Spine1  -10.084 10.9667 -28.3905
HEad  -32.5167 -32.797 18.4767
LeftShoulder1  7.72273 -14.9777 -35.6957
LeftArm  11.5303 -5.22659 -46.06
LeftForeArm  56.3483 -59.6029 -13.9675
LeftHand  -0.244104 0.0205437 5.32207
RightShoulder  0.00901606 -2.30415 -8.32088
RightArm  -8.29493 62.8627 3.4084
RightForeArm  49.9931 11.3368 9.35249
RightHand  -44.3626 39.6246 -90.3173
LeftUpLeg  -35.8463 10.7357 -14.804
LeftLeg  18.4593 -11.5172 -4.04888
LeftFoot  11.9389 -3.00839 14.1716
LeftToes  -1.33699e-010 -8.10125e-011 -3.35536e-011
100
root  -38.224 38.9092 -11.0033 8.76642 -62.0579 -0.55159
RightUpLeg  11.692 -33.2541 -8.81801
RightLeg  35.0026 -2.69808 -2.28224
RightFoot  -5.91398 -0.675802 13.3369
RightToes  5.82063e-011 0 -3.6325e-017
Spine  15.5897 5.93047 12.8779
Spine1  -7.44797 10.6036 -28.4532
HEad  -33.216 -29.1184 19.145
LeftShoulder1  7.31759 -14.6783 -34.1936
LeftArm  13.8518 -4.84524 -48.0902
LeftForeArm  54.8395 -58.576 -13.485
LeftHand  -0.244104 0.0205437 5.32207
RightShoulder  -0.0710464 -1.89443 -13.8972
RightArm  6.03286 78.6466 17.6726
RightForeArm  34.608 38.482 5.77427
RightHand  -16.7807 37.0608 -44.2945
LeftUpLeg  -33.2807 10.102 -13.2634
LeftLeg  14.5941 -10.8908 -3.96783
LeftFoot  12.2216 -2.74059 12.7225
LeftToes  -1.33699e-010 -8.10125e-011 -3.35536e-011
101
root  -39.1305 39.4102 -11.1747 10.4719 -61.7972 -2.14966
RightUpLeg  9.36373 -34.2964 -7.91249
RightLeg  34.7224 -6.10805 -4.79275
RightFoot  -8.41696 -0.306713 9.91884
RightToes  5.82063e-011 0 -3.6325e-017
Spine  15.8969 5.8985 13.4262
Spine1  -5.61469 11.2814 -28.7142
HEad  -34.1694 -28.0672 20.0575
LeftShoulder1  7.34506 -14.7821 -34.1116
LeftArm  19.8153 -7.12973 -49.8361
LeftForeArm  55.1588 -54.2475 -11.1307
LeftHand  -0.244104 0.0205437 5.32207
RightShoulder  -0.100726 1.73974 -12.2469
RightArm  92.9776 79.8872 129.728
RightForeArm  52.9429 46.0607 7.9728
RightHand  -3.18052 11.4775 -14.8944
LeftUpLeg  -30.7881 7.31529 -9.36998
LeftLeg  11.8902 -7.19091 -3.90382
LeftFoot  12.1234 -2.55938 11.917
LeftToes  -1.33699e-010 -8.10125e-011 -3.35536e-011
102
root  -39.874 39.7697 -11.3129 12.0254 -61.8475 -4.03307
RightUpLeg  7.2403 -35.509 -7.59788
RightLeg  32.905 -5.46389 -4.06552
RightFoot  -10.2501 -0.155987 9.45758
RightToes  5.82063e-011 0 -3.6325e-017
Spine  17.8752 6.91557 14.8519
Spine1  -3.82994 13.5481 -30.2023
HEad  -37.4018 -29.7132 23.4265
LeftShoulder1  7.69323 -15.4416 -34.5409
LeftArm  28.685 -11.2137 -51.9005
LeftForeArm  54.8801 -48.4657 -8.71027
LeftHand  -0.244104 0.0205437 5.32207
RightShoulder  0.650016 8.90193 -4.10054
RightArm  87.7304 66.2352 136.803
RightForeArm  56.5141 53.9199 10.9403
RightHand  -0.68057 -18.3515 13.9749
LeftUpLeg  -29.0026 5.53535 -6.44899
LeftLeg  10.672 -4.39116 -3.55214
LeftFoot  11.4548 -2.35477 11.2912
LeftToes  -1.33699e-010 -8.10125e-011 -3.35536e-011
103
root  -40.5223 39.9876 -11.4244 13.0547 -60.9646 -5.02695
RightUpLeg  4.93554 -37.6867 -7.37289
RightLeg  29.4601 -4.34092 -2.89426
RightFoot  -12.1801 5.27807e-005 11.128
RightToes  5.82063e-011 0 -3.6325e-017
Spine  20.04 8.17597 15.8389
Spine1  -1.80926 16.1717 -31.3951
HEad  -42.5391 -31.9344 28.3942
LeftShoulder1  8.08202 -16.0706 -35.2075
LeftArm  35.6294 -14.4522 -53.8929
LeftForeArm  50.1424 -43.0125 -7.15907
LeftHand  -0.244104 0.0205437 5.32207
RightShoulder  3.01709 15.8134 8.21928
RightArm  79.7831 53.9189 127.598
RightForeArm  73.7748 60.9122 13.4033
RightHand  0.605423 2.07103 13.0394
LeftUpLeg  -28.07 4.5059 -4.8382
LeftLeg  10.2697 -3.46666 -3.443
LeftFoot  10.7278 -2.17229 10.7684
LeftToes  -1.33699e-010 -8.10125e-011 -3.35536e-011
104
root  -41.1287 40.1303 -11.5023 13.7876 -58.3032 -5.23734
RightUpLeg  2.16739 -41.2998 -6.62353
RightLeg  24.579 -5.23163 -2.83122
RightFoot  -14.2476 0.196601 11.6889
RightToes  5.82063e-011 0 -3.6325e-017
Spine  21.1345 8.68775 16.2836
Spine1  0.0766324 17.5131 -31.1842
HEad  -46.8513 -33.4821 32.5343
LeftShoulder1  8.29319 -16.1537 -36.089
LeftArm  36.252 -15.3641 -53.9743
LeftForeArm  43.9733 -39.4834 -6.47966
LeftHand  -0.244104 0.0205437 5.32207
RightShoulder  5.5343 18.8556 18.2873
RightArm  75.2903 42.2128 117.825
RightForeArm  74.1837 63.2685 15.1532
RightHand  -0.364019 10.6449 -3.28846
LeftUpLeg  -27.7434 3.56199 -4.14914
LeftLeg  9.95162 -4.75688 -3.62779
LeftFoot  10.3722 -2.04414 10.2972
LeftToes  -1.33699e-010 -8.10125e-011 -3.35536e-011
105
root  -41.6311 40.2204 -11.5775 13.8141 -54.7312 -4.80704
RightUpLeg  -1.00558 -40.8848 -5.84479
RightLeg  19.5206 -9.21443 -2.17389
RightFoot  -15.0149 0.231216 10.3049
RightToes  5.82063e-011 0 -3.6325e-017
Spine  21.3985 8.14486 16.086
Spine1  1.58967 17.1636 -29.9329
HEad  -48.2815 -34.4128 34.4118
LeftShoulder1  8.20963 -15.6067 -36.8418
LeftArm  30.6793 -14.4375 -51.0312
LeftForeArm  40.3954 -38.5444 -6.43114
LeftHand  -0.244104 0.0205437 5.32207
RightShoulder  6.45732 19.1859 22.1256
RightArm  70.154 34.1125 109.306
RightForeArm  65.9174 65.8276 18.1479
RightHand  -1.64646 9.75935 -11.6353
LeftUpLeg  -27.4871 2.24785 -3.99048
LeftLeg  9.65759 -6.75463 -3.73423
LeftFoot  10.2269 -1.9206 9.72861
LeftToes  -1.33699e-010 -8.10125e-011 -3.35536e-011
106
root  -42.0108 40.2523 -11.6906 12.784 -51.8271 -3.86774
RightUpLeg  -3.78394 -31.1353 -6.48444
RightLeg  16.5286 -16.3436 -0.412094
RightFoot  -13.5529 0.0886327 9.39587
RightToes  5.82063e-011 0 -3.6325e-017
Spine  21.794 7.16679 14.7082
Spine1  2.66597 15.926 -28.0236
HEad  -47.1496 -34.9384 34.0006
LeftShoulder1  8.00834 -14.7596 -37.7072
LeftArm  22.2233 -12.4997 -45.7275
LeftForeArm  36.9986 -38.0838 -6.50319
LeftHand  -0.244104 0.0205437 5.32207
RightShoulder  6.39723 18.6092 22.6143
RightArm  64.5848 29.5512 100.738
RightForeArm  68.8959 68.5717 20.7884
RightHand  0.297794 0.669401 3.58858
LeftUpLeg  -26.9251 0.778657 -4.13392
LeftLeg  9.75852 -7.84094 -3.61248
LeftFoot  9.9565 -1.78711 9.1586
LeftToes  -1.33699e-010 -8.10125e-011 -3.35536e-011
107
root  -42.3457 40.2635 -11.8278 11.3208 -50.0577 -3.04716
RightUpLeg  -6.63737 -30.6873 -7.10802
RightLeg  16.5458 -10.1148 -0.147158
RightFoot  -11.1134 -0.0932176 9.12398
RightToes  5.82063e-011 0 -3.6325e-017
Spine  22.6987 6.43154 12.4948
Spine1  3.10602 14.5857 -25.6689
HEad  -44.8222 -35.0727 32.2183
LeftShoulder1  7.92249 -14.0829 -38.8574
LeftArm  12.6466 -9.62675 -39.7204
LeftForeArm  30.1251 -35.5869 -6.24055
LeftHand  -0.244104 0.0205437 5.32207
RightShoulder  6.56641 17.7622 24.6872
RightArm  58.4115 27.158 90.2749
RightForeArm  72.8417 66.9975 18.6821
RightHand  0.503649 3.48853 8.00287
LeftUpLeg  -26.0454 -0.294236 -4.28089
LeftLeg  10.2999 -8.17786 -3.3713
LeftFoot  9.49195 -1.67169 8.75881
LeftToes  -1.33699e-010 -8.10125e-011 -3.35536e-011
108
root  -42.686 40.2848 -11.955 10.2217 -48.8439 -2.69489
RightUpLeg  -9.10437 -32.0993 -6.82189
RightLeg  17.8529 -3.3217 -0.482636
RightFoot  -9.19795 -0.216138 8.2222
RightToes  5.82063e-011 0 -3.6325e-017
Spine  23.5486 6.11855 10.07
Spine1  3.13643 13.3571 -22.8022
HEad  -42.4437 -35.0122 30.2179
LeftShoulder1  8.05402 -13.7932 -40.2966
LeftArm  2.82909 -5.7807 -33.9597
LeftForeArm  21.1036 -31.3462 -5.68458
LeftHand  -0.244104 0.0205437 5.32207
RightShoulder  7.16215 16.6225 29.5786
RightArm  50.2726 26.4125 77.3847
RightForeArm  64.4141 60.2467 13.8275
RightHand  -0.267971 7.15764 -3.80883
LeftUpLeg  -25.211 -0.968536 -4.21108
LeftLeg  11.0053 -8.48932 -3.12887
LeftFoot  8.87579 -1.56261 8.44335
LeftToes  -1.33699e-010 -8.10125e-011 -3.35536e-011
